<?xml version="1.0" encoding="UTF-8" standalone="no"?>
<!DOCTYPE svg PUBLIC "-//W3C//DTD SVG 1.1//EN" "http://www.w3.org/Graphics/SVG/1.1/DTD/svg11.dtd">
<svg width="100%" height="100%" viewBox="0 0 512 512" version="1.1" xmlns="http://www.w3.org/2000/svg" xmlns:xlink="http://www.w3.org/1999/xlink" xml:space="preserve" xmlns:serif="http://www.serif.com/" style="fill-rule:evenodd;clip-rule:evenodd;stroke-linejoin:round;stroke-miterlimit:2;">
    <g transform="matrix(0.153435,0,0,0.153435,-1017.08,-237.55)">
        <g id="logo">
            <path d="M8063.38,1661.04L8941.82,1583.85C9373.44,1545.93 9754.66,1865.57 9792.59,2297.19L9930.02,3861.3C9967.94,4292.92 9648.31,4674.14 9216.68,4712.06L7652.57,4849.49C7220.95,4887.42 6839.73,4567.78 6801.81,4136.16L6664.38,2572.05C6634.78,2235.17 6822.99,1928.99 7112.28,1792.77C7227.22,1839.33 7357.54,1885.36 7504.08,1927.93C7780.19,2008.16 7968.65,2006.59 8123.31,2034.8C8237.07,2055.55 8432.29,2101.26 8432.03,2097.21C8431.9,2095.25 8431.78,2093.3 8431.67,2091.36C8428.38,2034.04 8452.16,1929.21 8523.25,1863.43C8455.28,1836.66 8358,1808.34 8214.42,1740.14C8174.85,1721.34 8122.35,1692.88 8063.38,1661.04ZM8846.91,3767.56C8658.14,3767.56 8522.67,3647.64 8456.05,3581.01L8262.83,3860.84C8316.13,3920.8 8502.68,4054.05 8802.5,4054.05C9197.81,4054.05 9391.02,3827.53 9391.02,3594.34C9391.02,3099.09 8675.91,3136.85 8675.91,2885.89C8675.91,2808.16 8738.09,2745.98 8849.13,2745.98C9013.48,2745.98 9102.31,2843.7 9140.06,2890.33L9351.04,2639.38C9299.96,2572.75 9137.84,2452.83 8878.01,2452.83C8555.98,2452.83 8329.46,2654.93 8329.46,2912.54C8329.46,3403.35 9046.79,3370.03 9046.79,3616.55C9046.79,3698.72 8982.38,3767.56 8846.91,3767.56ZM7748.94,2699.99L7292.95,2699.99L7292.95,4031.84L7583.64,4031.84L7583.64,3558.76L7693.84,3558.76C8083.33,3558.76 8214.42,3344.06 8214.42,3095.17C8214.42,2800.68 8018.73,2699.99 7748.94,2699.99ZM7701.44,2945.08C7849.64,2945.08 7914.23,3003.97 7914.23,3135.07C7914.23,3237.67 7872.43,3321.26 7678.64,3321.26L7583.64,3321.26L7583.64,2945.08L7701.44,2945.08ZM8642.22,1883.18C8539.6,1908.41 8518.07,2027.68 8523.84,2080.78C8529.61,2133.87 8546.75,2195.48 8671.27,2266.49C8795.79,2337.5 8922.91,2368.82 9090.69,2260.22C9258.48,2151.63 9296.58,2069.77 9296.58,2069.77C9296.58,2069.77 9076.92,2061.07 8968.05,1978.07C8859.17,1895.06 8744.84,1857.96 8642.22,1883.18Z"/>
        </g>
    </g>
</svg>
