<?xml version="1.0" encoding="UTF-8" standalone="no"?>
<!DOCTYPE svg PUBLIC "-//W3C//DTD SVG 1.1//EN" "http://www.w3.org/Graphics/SVG/1.1/DTD/svg11.dtd">
<svg width="100%" height="100%" viewBox="0 0 2404 691" version="1.1" xmlns="http://www.w3.org/2000/svg" xmlns:xlink="http://www.w3.org/1999/xlink" xml:space="preserve" xmlns:serif="http://www.serif.com/" style="fill-rule:evenodd;clip-rule:evenodd;stroke-linejoin:round;stroke-miterlimit:2;">
    <g id="Artboard1" transform="matrix(1,0,0,0.926198,-551.364,-802.571)">
        <rect x="551.364" y="866.522" width="2403.59" height="745.863" style="fill:none;"/>
        <g transform="matrix(4.78862,0,0,5.17019,-3985.88,-1020.77)">
            <text x="1135.83px" y="439.514px" style="font-family:'ZillaSlab-Bold', 'Zilla Slab';font-weight:700;font-size:96px;fill:rgb(250,162,26);">RETR<tspan x="1377.17px " y="439.514px ">O</tspan></text>
        </g>
        <g transform="matrix(4.78862,0,0,5.17019,-3985.88,-726.071)">
            <text x="1135.83px" y="439.514px" style="font-family:'ZillaSlab-Bold', 'Zilla Slab';font-weight:700;font-size:64px;fill:white;">Kino</text>
        </g>
        <g transform="matrix(2.12915,0,0,2.32861,-2058.58,-602.24)">
            <g transform="matrix(4.16667,0,0,4.16667,0,0)">
                <path d="M377.074,169.42L370.675,169.42L370.675,164.954L377.074,164.954L377.074,169.42ZM377.074,177.965L370.675,177.965L370.675,173.502L377.074,173.502L377.074,177.965ZM377.074,186.513L370.675,186.513L370.675,182.05L377.074,182.05L377.074,186.513ZM377.074,195.057L370.675,195.057L370.675,190.596L377.074,190.596L377.074,195.057ZM377.074,203.604L370.675,203.604L370.675,199.141L377.074,199.141L377.074,203.604ZM306.869,169.42L300.471,169.42L300.471,164.954L306.869,164.954L306.869,169.42ZM306.869,177.965L300.471,177.965L300.471,173.502L306.869,173.502L306.869,177.965ZM306.869,186.513L300.471,186.513L300.471,182.05L306.869,182.05L306.869,186.513ZM306.869,195.057L300.471,195.057L300.471,190.596L306.869,190.596L306.869,195.057ZM306.869,203.604L300.471,203.604L300.471,199.141L306.869,199.141L306.869,203.604ZM377.074,156.986L377.074,160.87L370.675,160.87L370.675,156.986L306.869,156.986L306.869,160.87L300.471,160.87L300.471,156.986L297.794,156.986L297.794,210.272L300.471,210.272L300.471,207.686L306.869,207.686L306.869,210.272L370.675,210.272L370.675,207.686L377.074,207.686L377.074,210.272L379.901,210.272L379.901,156.986L377.074,156.986Z" style="fill:rgb(250,162,26);fill-rule:nonzero;"/>
            </g>
            <g transform="matrix(4.16667,0,0,4.16667,0,0)">
                <path d="M366.803,200.493C366.803,203.153 364.725,205.335 362.184,205.335L315.514,205.335C312.973,205.335 310.893,203.153 310.893,200.493L310.893,166.767C310.893,164.105 312.973,161.925 315.514,161.925L362.184,161.925C364.725,161.925 366.803,164.105 366.803,166.767L366.803,200.493Z" style="fill:rgb(3,4,4);fill-rule:nonzero;"/>
            </g>
            <g transform="matrix(4.16667,0,0,4.16667,0,0)">
                <path d="M356.09,182.964C355.746,173.971 348.508,166.733 339.513,166.387L339.513,164.837C349.361,165.184 357.294,173.116 357.64,182.964L356.09,182.964ZM339.513,202.421L339.513,200.872C344.387,200.685 348.744,198.474 351.769,195.057C354.327,192.167 355.932,188.415 356.09,184.294L357.64,184.294C357.294,194.141 349.361,202.075 339.513,202.421ZM339.513,184.294L354.762,184.294C354.419,192.555 347.775,199.2 339.513,199.544L339.513,184.294ZM339.513,167.716C347.775,168.059 354.419,174.703 354.762,182.964L339.513,182.964L339.513,167.716ZM338.185,166.387C329.19,166.733 321.952,173.971 321.604,182.964L320.056,182.964C320.403,173.116 328.335,165.184 338.185,164.837L338.185,166.387ZM338.185,182.964L322.935,182.964C323.278,174.703 329.923,168.059 338.185,167.716L338.185,182.964ZM338.185,199.544C329.923,199.2 323.278,192.555 322.935,184.294L338.185,184.294L338.185,199.544ZM338.185,202.421C328.335,202.075 320.403,194.141 320.056,184.294L321.604,184.294C321.952,193.288 329.19,200.526 338.185,200.872L338.185,202.421ZM366.803,182.964L358.969,182.964C358.622,172.384 350.095,163.856 339.513,163.509L339.513,161.925L338.185,161.925L338.185,163.509C327.603,163.856 319.074,172.384 318.727,182.964L310.893,182.964L310.893,184.294L318.727,184.294C319.074,194.874 327.603,203.403 338.185,203.749L338.185,205.335L339.513,205.335L339.513,203.749C344.125,203.598 348.347,201.893 351.671,199.141C355.974,195.579 358.773,190.263 358.969,184.294L366.803,184.294L366.803,182.964Z" style="fill:white;fill-rule:nonzero;"/>
            </g>
            <g transform="matrix(4.16667,0,0,4.16667,0,0)">
                <path d="M331.29,176.334C333.223,175.386 334.747,174.842 337.22,171.895L343.253,171.895L343.253,191.073L346.405,191.073L346.405,195.581L332.849,195.581L332.849,191.073L336.238,191.073L336.238,178.503L332.849,180.096L331.29,176.334Z" style="fill:rgb(250,162,26);fill-rule:nonzero;"/>
            </g>
        </g>
    </g>
</svg>
