<?xml version="1.0" encoding="UTF-8" standalone="no"?>
<!DOCTYPE svg PUBLIC "-//W3C//DTD SVG 1.1//EN" "http://www.w3.org/Graphics/SVG/1.1/DTD/svg11.dtd">
<svg width="100%" height="100%" viewBox="0 0 2404 691" version="1.1" xmlns="http://www.w3.org/2000/svg" xmlns:xlink="http://www.w3.org/1999/xlink" xml:space="preserve" xmlns:serif="http://www.serif.com/" style="fill-rule:evenodd;clip-rule:evenodd;stroke-linejoin:round;stroke-miterlimit:2;">
    <g id="Artboard1" transform="matrix(1,0,0,0.926198,-551.364,-802.571)">
        <rect x="551.364" y="866.522" width="2403.59" height="745.863" style="fill:none;"/>
        <g transform="matrix(4.78862,0,0,5.17019,-3985.88,-1020.77)">
            <g>
                <g transform="matrix(1,0,0,1,1135.83,439.514)">
                    <g transform="matrix(96,0,0,96,0,0)">
                        <path d="M0.626,-0L0.46,-0L0.331,-0.248L0.243,-0.248L0.243,-0.114L0.313,-0.114L0.313,-0L0.039,-0L0.039,-0.114L0.109,-0.114L0.109,-0.536L0.039,-0.536L0.039,-0.65L0.333,-0.65C0.414,-0.65 0.476,-0.634 0.519,-0.601C0.562,-0.568 0.584,-0.518 0.584,-0.453C0.584,-0.409 0.573,-0.372 0.55,-0.343C0.527,-0.313 0.497,-0.291 0.46,-0.276L0.548,-0.114L0.626,-0.114L0.626,-0ZM0.44,-0.45C0.44,-0.483 0.43,-0.505 0.411,-0.518C0.392,-0.53 0.358,-0.536 0.309,-0.536L0.243,-0.536L0.243,-0.354L0.307,-0.354C0.358,-0.354 0.393,-0.362 0.412,-0.379C0.431,-0.396 0.44,-0.419 0.44,-0.45Z" style="fill:rgb(250,162,26);fill-rule:nonzero;"/>
                    </g>
                    <g transform="matrix(96,0,0,96,61.248,0)">
                        <path d="M0.541,-0L0.039,-0L0.039,-0.114L0.109,-0.114L0.109,-0.536L0.039,-0.536L0.039,-0.65L0.535,-0.65L0.555,-0.46L0.441,-0.45L0.421,-0.536L0.243,-0.536L0.243,-0.383L0.517,-0.383L0.517,-0.27L0.243,-0.27L0.243,-0.114L0.427,-0.114L0.447,-0.2L0.561,-0.19L0.541,-0Z" style="fill:rgb(250,162,26);fill-rule:nonzero;"/>
                    </g>
                    <g transform="matrix(96,0,0,96,118.176,0)">
                        <path d="M0.629,-0.43L0.515,-0.42L0.495,-0.536L0.392,-0.536L0.392,-0.114L0.498,-0.114L0.498,-0L0.158,-0L0.158,-0.114L0.258,-0.114L0.258,-0.536L0.155,-0.536L0.135,-0.42L0.021,-0.43L0.041,-0.65L0.609,-0.65L0.629,-0.43Z" style="fill:rgb(250,162,26);fill-rule:nonzero;"/>
                    </g>
                    <g transform="matrix(96,0,0,96,180.672,0)">
                        <path d="M0.626,-0L0.46,-0L0.331,-0.248L0.243,-0.248L0.243,-0.114L0.313,-0.114L0.313,-0L0.039,-0L0.039,-0.114L0.109,-0.114L0.109,-0.536L0.039,-0.536L0.039,-0.65L0.333,-0.65C0.414,-0.65 0.476,-0.634 0.519,-0.601C0.562,-0.568 0.584,-0.518 0.584,-0.453C0.584,-0.409 0.573,-0.372 0.55,-0.343C0.527,-0.313 0.497,-0.291 0.46,-0.276L0.548,-0.114L0.626,-0.114L0.626,-0ZM0.44,-0.45C0.44,-0.483 0.43,-0.505 0.411,-0.518C0.392,-0.53 0.358,-0.536 0.309,-0.536L0.243,-0.536L0.243,-0.354L0.307,-0.354C0.358,-0.354 0.393,-0.362 0.412,-0.379C0.431,-0.396 0.44,-0.419 0.44,-0.45Z" style="fill:rgb(250,162,26);fill-rule:nonzero;"/>
                    </g>
                </g>
                <g transform="matrix(96,0,0,96,1377.17,439.514)">
                    <path d="M0.688,-0.326C0.688,-0.234 0.659,-0.155 0.6,-0.089C0.541,-0.023 0.458,0.01 0.353,0.01C0.247,0.01 0.166,-0.023 0.109,-0.089C0.052,-0.155 0.024,-0.233 0.024,-0.324C0.024,-0.419 0.054,-0.498 0.114,-0.563C0.174,-0.628 0.255,-0.66 0.357,-0.66C0.461,-0.66 0.542,-0.627 0.601,-0.562C0.659,-0.496 0.688,-0.417 0.688,-0.326ZM0.543,-0.322C0.543,-0.391 0.527,-0.445 0.495,-0.484C0.463,-0.523 0.417,-0.542 0.356,-0.542C0.291,-0.542 0.244,-0.522 0.214,-0.481C0.184,-0.44 0.169,-0.388 0.169,-0.327C0.169,-0.268 0.184,-0.216 0.213,-0.173C0.242,-0.13 0.291,-0.108 0.36,-0.108C0.423,-0.108 0.47,-0.128 0.499,-0.168C0.528,-0.207 0.543,-0.259 0.543,-0.322Z" style="fill:rgb(250,162,26);fill-rule:nonzero;"/>
                </g>
            </g>
        </g>
        <g transform="matrix(4.78862,0,0,5.17019,1453.18,1546.3)">
            <g>
                <g transform="matrix(64,0,0,64,0,0)">
                    <path d="M0.665,-0L0.382,-0L0.382,-0.114L0.442,-0.114L0.323,-0.274L0.243,-0.274L0.243,-0.114L0.298,-0.114L0.298,-0L0.039,-0L0.039,-0.114L0.109,-0.114L0.109,-0.536L0.039,-0.536L0.039,-0.65L0.301,-0.65L0.301,-0.536L0.243,-0.536L0.243,-0.383L0.325,-0.383L0.44,-0.536L0.384,-0.536L0.384,-0.65L0.654,-0.65L0.654,-0.536L0.581,-0.536L0.426,-0.341L0.598,-0.114L0.665,-0.114L0.665,-0Z" style="fill:white;fill-rule:nonzero;"/>
                </g>
                <g transform="matrix(64,0,0,64,43.136,0)">
                    <path d="M0.087,-0.531L0.087,-0.665L0.216,-0.665L0.216,-0.531L0.087,-0.531ZM0.281,-0L0.032,-0L0.032,-0.097L0.092,-0.097L0.092,-0.353L0.027,-0.353L0.027,-0.451L0.221,-0.451L0.221,-0.097L0.281,-0.097L0.281,-0Z" style="fill:white;fill-rule:nonzero;"/>
                </g>
                <g transform="matrix(64,0,0,64,62.272,0)">
                    <path d="M0.581,-0L0.332,-0L0.332,-0.097L0.392,-0.097L0.392,-0.254C0.392,-0.293 0.386,-0.32 0.373,-0.337C0.36,-0.354 0.34,-0.362 0.315,-0.362C0.284,-0.362 0.261,-0.353 0.244,-0.334C0.227,-0.315 0.219,-0.29 0.218,-0.259L0.218,-0.097L0.278,-0.097L0.278,-0L0.029,-0L0.029,-0.097L0.089,-0.097L0.089,-0.353L0.024,-0.353L0.024,-0.451L0.218,-0.451L0.218,-0.382C0.248,-0.434 0.296,-0.46 0.363,-0.46C0.406,-0.46 0.443,-0.447 0.474,-0.422C0.505,-0.397 0.521,-0.357 0.521,-0.304L0.521,-0.097L0.581,-0.097L0.581,-0Z" style="fill:white;fill-rule:nonzero;"/>
                </g>
                <g transform="matrix(64,0,0,64,100.224,0)">
                    <path d="M0.503,-0.225C0.503,-0.154 0.48,-0.097 0.433,-0.054C0.386,-0.011 0.327,0.01 0.255,0.01C0.186,0.01 0.129,-0.01 0.086,-0.051C0.042,-0.091 0.02,-0.147 0.02,-0.22C0.02,-0.286 0.04,-0.343 0.08,-0.39C0.12,-0.437 0.181,-0.461 0.262,-0.461C0.343,-0.461 0.404,-0.438 0.444,-0.391C0.483,-0.343 0.503,-0.288 0.503,-0.225ZM0.37,-0.229C0.37,-0.275 0.359,-0.309 0.338,-0.33C0.317,-0.351 0.291,-0.362 0.26,-0.362C0.227,-0.362 0.2,-0.35 0.182,-0.327C0.163,-0.303 0.153,-0.27 0.153,-0.227C0.153,-0.188 0.162,-0.156 0.18,-0.129C0.197,-0.102 0.224,-0.089 0.259,-0.089C0.292,-0.089 0.319,-0.101 0.34,-0.127C0.36,-0.152 0.37,-0.186 0.37,-0.229Z" style="fill:white;fill-rule:nonzero;"/>
                </g>
            </g>
        </g>
        <g transform="matrix(2.12915,0,0,2.32861,-2058.58,-602.24)">
            <g transform="matrix(4.16667,0,0,4.16667,0,0)">
                <path d="M377.074,169.42L370.675,169.42L370.675,164.954L377.074,164.954L377.074,169.42ZM377.074,177.965L370.675,177.965L370.675,173.502L377.074,173.502L377.074,177.965ZM377.074,186.513L370.675,186.513L370.675,182.05L377.074,182.05L377.074,186.513ZM377.074,195.057L370.675,195.057L370.675,190.596L377.074,190.596L377.074,195.057ZM377.074,203.604L370.675,203.604L370.675,199.141L377.074,199.141L377.074,203.604ZM306.869,169.42L300.471,169.42L300.471,164.954L306.869,164.954L306.869,169.42ZM306.869,177.965L300.471,177.965L300.471,173.502L306.869,173.502L306.869,177.965ZM306.869,186.513L300.471,186.513L300.471,182.05L306.869,182.05L306.869,186.513ZM306.869,195.057L300.471,195.057L300.471,190.596L306.869,190.596L306.869,195.057ZM306.869,203.604L300.471,203.604L300.471,199.141L306.869,199.141L306.869,203.604ZM377.074,156.986L377.074,160.87L370.675,160.87L370.675,156.986L306.869,156.986L306.869,160.87L300.471,160.87L300.471,156.986L297.794,156.986L297.794,210.272L300.471,210.272L300.471,207.686L306.869,207.686L306.869,210.272L370.675,210.272L370.675,207.686L377.074,207.686L377.074,210.272L379.901,210.272L379.901,156.986L377.074,156.986Z" style="fill:rgb(250,162,26);fill-rule:nonzero;"/>
            </g>
            <g transform="matrix(4.16667,0,0,4.16667,0,0)">
                <path d="M366.803,200.493C366.803,203.153 364.725,205.335 362.184,205.335L315.514,205.335C312.973,205.335 310.893,203.153 310.893,200.493L310.893,166.767C310.893,164.105 312.973,161.925 315.514,161.925L362.184,161.925C364.725,161.925 366.803,164.105 366.803,166.767L366.803,200.493Z" style="fill:rgb(3,4,4);fill-rule:nonzero;"/>
            </g>
            <g transform="matrix(4.16667,0,0,4.16667,0,0)">
                <path d="M356.09,182.964C355.746,173.971 348.508,166.733 339.513,166.387L339.513,164.837C349.361,165.184 357.294,173.116 357.64,182.964L356.09,182.964ZM339.513,202.421L339.513,200.872C344.387,200.685 348.744,198.474 351.769,195.057C354.327,192.167 355.932,188.415 356.09,184.294L357.64,184.294C357.294,194.141 349.361,202.075 339.513,202.421ZM339.513,184.294L354.762,184.294C354.419,192.555 347.775,199.2 339.513,199.544L339.513,184.294ZM339.513,167.716C347.775,168.059 354.419,174.703 354.762,182.964L339.513,182.964L339.513,167.716ZM338.185,166.387C329.19,166.733 321.952,173.971 321.604,182.964L320.056,182.964C320.403,173.116 328.335,165.184 338.185,164.837L338.185,166.387ZM338.185,182.964L322.935,182.964C323.278,174.703 329.923,168.059 338.185,167.716L338.185,182.964ZM338.185,199.544C329.923,199.2 323.278,192.555 322.935,184.294L338.185,184.294L338.185,199.544ZM338.185,202.421C328.335,202.075 320.403,194.141 320.056,184.294L321.604,184.294C321.952,193.288 329.19,200.526 338.185,200.872L338.185,202.421ZM366.803,182.964L358.969,182.964C358.622,172.384 350.095,163.856 339.513,163.509L339.513,161.925L338.185,161.925L338.185,163.509C327.603,163.856 319.074,172.384 318.727,182.964L310.893,182.964L310.893,184.294L318.727,184.294C319.074,194.874 327.603,203.403 338.185,203.749L338.185,205.335L339.513,205.335L339.513,203.749C344.125,203.598 348.347,201.893 351.671,199.141C355.974,195.579 358.773,190.263 358.969,184.294L366.803,184.294L366.803,182.964Z" style="fill:white;fill-rule:nonzero;"/>
            </g>
            <g transform="matrix(4.16667,0,0,4.16667,0,0)">
                <path d="M331.29,176.334C333.223,175.386 334.747,174.842 337.22,171.895L343.253,171.895L343.253,191.073L346.405,191.073L346.405,195.581L332.849,195.581L332.849,191.073L336.238,191.073L336.238,178.503L332.849,180.096L331.29,176.334Z" style="fill:rgb(250,162,26);fill-rule:nonzero;"/>
            </g>
        </g>
    </g>
</svg>
