<?xml version="1.0" encoding="UTF-8" standalone="no"?>
<!DOCTYPE svg PUBLIC "-//W3C//DTD SVG 1.1//EN" "http://www.w3.org/Graphics/SVG/1.1/DTD/svg11.dtd">
<svg width="100%" height="100%" viewBox="0 0 200 200" version="1.1" xmlns="http://www.w3.org/2000/svg" xmlns:xlink="http://www.w3.org/1999/xlink" xml:space="preserve" xmlns:serif="http://www.serif.com/" style="fill-rule:evenodd;clip-rule:evenodd;stroke-linejoin:round;stroke-miterlimit:2;">
    <g transform="matrix(1,0,0,1,-611.704,-3018.64)">
        <g transform="matrix(1.57734,0,0,1.57734,409.913,2820.63)">
            <path d="M246.003,209.427L250.951,198.468L231.779,198.468L231.779,220.485L250.997,220.485L246.003,209.427Z" style="fill:rgb(124,125,125);fill-rule:nonzero;"/>
        </g>
        <g transform="matrix(1.57734,0,0,1.57734,409.913,2820.63)">
            <path d="M131.707,198.468L136.653,209.427L131.661,220.485L150.878,220.485L150.878,198.468L131.707,198.468Z" style="fill:rgb(124,125,125);fill-rule:nonzero;"/>
        </g>
        <g transform="matrix(1.57734,0,0,1.57734,409.913,2820.63)">
            <path d="M150.878,220.485L141.135,225.821L141.135,203.805L150.878,198.468L150.878,220.485Z" style="fill:rgb(3,4,4);fill-rule:nonzero;"/>
        </g>
        <g transform="matrix(1.57734,0,0,1.57734,409.913,2820.63)">
            <path d="M241.522,203.805L231.779,198.468L231.779,220.485L241.522,225.821L241.522,203.805Z" style="fill:rgb(3,4,4);fill-rule:nonzero;"/>
        </g>
        <g transform="matrix(1.57734,0,0,1.57734,409.913,2820.63)">
            <rect x="141.135" y="203.805" width="100.387" height="22.016" style="fill:rgb(250,162,26);fill-rule:nonzero;"/>
        </g>
        <g transform="matrix(0.260691,0,0,0.260691,479.571,2931.53)">
            <g transform="matrix(54.1667,0,0,54.1667,624.429,892.414)">
                <path d="M0.241,-0.397L0.29,-0.397C0.338,-0.397 0.373,-0.405 0.396,-0.421C0.419,-0.437 0.43,-0.462 0.43,-0.496C0.43,-0.53 0.419,-0.554 0.395,-0.568C0.372,-0.583 0.336,-0.59 0.287,-0.59L0.241,-0.59L0.241,-0.397ZM0.241,-0.274L0.241,-0L0.09,-0L0.09,-0.714L0.298,-0.714C0.395,-0.714 0.467,-0.696 0.513,-0.661C0.56,-0.626 0.583,-0.572 0.583,-0.5C0.583,-0.458 0.571,-0.421 0.548,-0.388C0.525,-0.355 0.493,-0.33 0.45,-0.311C0.558,-0.151 0.628,-0.047 0.66,-0L0.492,-0L0.322,-0.274L0.241,-0.274Z" style="fill-rule:nonzero;"/>
            </g>
            <g transform="matrix(54.1667,0,0,54.1667,660.187,892.414)">
                <path d="M0.501,-0L0.09,-0L0.09,-0.714L0.501,-0.714L0.501,-0.59L0.241,-0.59L0.241,-0.433L0.483,-0.433L0.483,-0.309L0.241,-0.309L0.241,-0.125L0.501,-0.125L0.501,-0Z" style="fill-rule:nonzero;"/>
            </g>
            <g transform="matrix(54.1667,0,0,54.1667,690.524,892.414)">
                <path d="M0.365,-0L0.214,-0L0.214,-0.588L0.02,-0.588L0.02,-0.714L0.559,-0.714L0.559,-0.588L0.365,-0.588L0.365,-0Z" style="fill-rule:nonzero;"/>
            </g>
            <g transform="matrix(54.1667,0,0,54.1667,721.892,892.414)">
                <path d="M0.241,-0.397L0.29,-0.397C0.338,-0.397 0.373,-0.405 0.396,-0.421C0.419,-0.437 0.43,-0.462 0.43,-0.496C0.43,-0.53 0.419,-0.554 0.395,-0.568C0.372,-0.583 0.336,-0.59 0.287,-0.59L0.241,-0.59L0.241,-0.397ZM0.241,-0.274L0.241,-0L0.09,-0L0.09,-0.714L0.298,-0.714C0.395,-0.714 0.467,-0.696 0.513,-0.661C0.56,-0.626 0.583,-0.572 0.583,-0.5C0.583,-0.458 0.571,-0.421 0.548,-0.388C0.525,-0.355 0.493,-0.33 0.45,-0.311C0.558,-0.151 0.628,-0.047 0.66,-0L0.492,-0L0.322,-0.274L0.241,-0.274Z" style="fill-rule:nonzero;"/>
            </g>
            <g transform="matrix(54.1667,0,0,54.1667,757.65,892.414)">
                <path d="M0.738,-0.358C0.738,-0.24 0.708,-0.149 0.65,-0.085C0.591,-0.022 0.507,0.01 0.398,0.01C0.289,0.01 0.205,-0.022 0.146,-0.085C0.087,-0.149 0.058,-0.24 0.058,-0.359C0.058,-0.478 0.087,-0.568 0.146,-0.631C0.205,-0.694 0.289,-0.725 0.399,-0.725C0.509,-0.725 0.593,-0.694 0.651,-0.63C0.709,-0.567 0.738,-0.476 0.738,-0.358ZM0.217,-0.358C0.217,-0.278 0.232,-0.218 0.262,-0.178C0.292,-0.137 0.338,-0.117 0.398,-0.117C0.519,-0.117 0.579,-0.197 0.579,-0.358C0.579,-0.519 0.519,-0.599 0.399,-0.599C0.339,-0.599 0.293,-0.579 0.263,-0.538C0.232,-0.498 0.217,-0.438 0.217,-0.358Z" style="fill-rule:nonzero;"/>
            </g>
        </g>
        <g transform="matrix(0.327761,0,0,0.327761,530.681,2872.98)">
            <g transform="matrix(54.1667,0,0,54.1667,624.429,892.414)">
                <path d="M0.664,-0L0.492,-0L0.305,-0.301L0.241,-0.255L0.241,-0L0.09,-0L0.09,-0.714L0.241,-0.714L0.241,-0.387L0.301,-0.471L0.494,-0.714L0.662,-0.714L0.413,-0.398L0.664,-0Z" style="fill-rule:nonzero;"/>
            </g>
            <g transform="matrix(54.1667,0,0,54.1667,660.399,892.414)">
                <rect x="0.09" y="-0.714" width="0.151" height="0.714" style="fill-rule:nonzero;"/>
            </g>
            <g transform="matrix(54.1667,0,0,54.1667,678.331,892.414)">
                <path d="M0.723,-0L0.531,-0L0.22,-0.54L0.216,-0.54C0.222,-0.445 0.225,-0.377 0.225,-0.336L0.225,-0L0.09,-0L0.09,-0.714L0.281,-0.714L0.591,-0.179L0.594,-0.179C0.589,-0.272 0.587,-0.338 0.587,-0.376L0.587,-0.714L0.723,-0.714L0.723,-0Z" style="fill-rule:nonzero;"/>
            </g>
            <g transform="matrix(54.1667,0,0,54.1667,722.368,892.414)">
                <path d="M0.738,-0.358C0.738,-0.24 0.708,-0.149 0.65,-0.085C0.591,-0.022 0.507,0.01 0.398,0.01C0.289,0.01 0.205,-0.022 0.146,-0.085C0.087,-0.149 0.058,-0.24 0.058,-0.359C0.058,-0.478 0.087,-0.568 0.146,-0.631C0.205,-0.694 0.289,-0.725 0.399,-0.725C0.509,-0.725 0.593,-0.694 0.651,-0.63C0.709,-0.567 0.738,-0.476 0.738,-0.358ZM0.217,-0.358C0.217,-0.278 0.232,-0.218 0.262,-0.178C0.292,-0.137 0.338,-0.117 0.398,-0.117C0.519,-0.117 0.579,-0.197 0.579,-0.358C0.579,-0.519 0.519,-0.599 0.399,-0.599C0.339,-0.599 0.293,-0.579 0.263,-0.538C0.232,-0.498 0.217,-0.438 0.217,-0.358Z" style="fill-rule:nonzero;"/>
            </g>
        </g>
        <g transform="matrix(1.57734,0,0,1.57734,409.913,2820.63)">
            <rect x="184.554" y="201.747" width="13.549" height="1.074" style="fill:rgb(124,125,125);fill-rule:nonzero;"/>
        </g>
        <g transform="matrix(1.57734,0,0,1.57734,409.913,2820.63)">
            <path d="M212.298,228.514L210.379,230.374L176.733,195.655L178.65,193.796L212.298,228.514Z" style="fill:rgb(124,125,125);fill-rule:nonzero;"/>
        </g>
        <g transform="matrix(1.57734,0,0,1.57734,409.913,2820.63)">
            <path d="M170.359,228.514L172.269,230.381L205.996,195.188L204.088,193.319L170.359,228.514Z" style="fill:rgb(124,125,125);fill-rule:nonzero;"/>
        </g>
        <g transform="matrix(1.57734,0,0,1.57734,409.913,2820.63)">
            <rect x="183.408" y="208.618" width="15.841" height="1.074" style="fill:rgb(3,4,4);fill-rule:nonzero;"/>
        </g>
        <g transform="matrix(1.57734,0,0,1.57734,409.913,2820.63)">
            <path d="M212.298,237.1L210.379,238.962L170.359,197.667L172.278,195.808L212.298,237.1Z" style="fill:rgb(3,4,4);fill-rule:nonzero;"/>
        </g>
        <g transform="matrix(1.57734,0,0,1.57734,409.913,2820.63)">
            <path d="M170.359,237.1L172.278,238.962L212.298,197.667L210.379,195.808L170.359,237.1Z" style="fill:rgb(3,4,4);fill-rule:nonzero;"/>
        </g>
        <g transform="matrix(1.57734,0,0,1.57734,409.913,2820.63)">
            <path d="M206.428,229.978L206.428,229.478C206.428,227.904 205.14,226.615 203.565,226.615L179.092,226.615C177.518,226.615 176.229,227.904 176.229,229.478L176.229,229.978L206.428,229.978Z" style="fill:rgb(3,4,4);fill-rule:nonzero;"/>
        </g>
        <g transform="matrix(1.57734,0,0,1.57734,409.913,2820.63)">
            <rect x="169.096" y="160.012" width="2.673" height="34.734" style="fill:rgb(124,125,125);fill-rule:nonzero;"/>
        </g>
        <g transform="matrix(1.57734,0,0,1.57734,409.913,2820.63)">
            <rect x="210.888" y="160.012" width="2.672" height="34.734" style="fill:rgb(124,125,125);fill-rule:nonzero;"/>
        </g>
        <g transform="matrix(1.57734,0,0,1.57734,409.913,2820.63)">
            <rect x="168.429" y="192.074" width="45.8" height="7.347" style="fill:rgb(3,4,4);fill-rule:nonzero;"/>
        </g>
        <g transform="matrix(1.57734,0,0,1.57734,409.913,2820.63)">
            <path d="M174.368,190.116L174.368,188.686C174.368,187.112 173.079,185.825 171.506,185.825L168.786,185.825C167.211,185.825 165.924,187.112 165.924,188.686L165.924,190.116L174.368,190.116Z" style="fill:rgb(124,125,125);fill-rule:nonzero;"/>
        </g>
        <g transform="matrix(1.57734,0,0,1.57734,409.913,2820.63)">
            <path d="M216.733,190.116L216.733,188.686C216.733,187.112 215.446,185.825 213.871,185.825L211.152,185.825C209.578,185.825 208.29,187.112 208.29,188.686L208.29,190.116L216.733,190.116Z" style="fill:rgb(124,125,125);fill-rule:nonzero;"/>
        </g>
        <g transform="matrix(1.57734,0,0,1.57734,409.913,2820.63)">
            <rect x="168.429" y="161.158" width="45.8" height="16.889" style="fill:rgb(3,4,4);fill-rule:nonzero;"/>
        </g>
        <g transform="matrix(1.57734,0,0,1.57734,409.913,2820.63)">
            <rect x="168.429" y="195.879" width="45.8" height="0.788" style="fill:rgb(124,125,125);fill-rule:nonzero;"/>
        </g>
        <g transform="matrix(0.340067,0,0,0.339215,420.373,2844.37)">
            <g transform="matrix(21.9877,-56.2873,56.1463,22.0429,643.674,783.198)">
                <path d="M0.547,-0.45L0.433,-0.44L0.413,-0.536L0.243,-0.536L0.243,-0.354L0.516,-0.354L0.516,-0.241L0.243,-0.241L0.243,-0.114L0.349,-0.114L0.349,-0L0.039,-0L0.039,-0.114L0.109,-0.114L0.109,-0.536L0.039,-0.536L0.039,-0.65L0.527,-0.65L0.547,-0.45Z" style="fill:rgb(124,125,125);fill-rule:nonzero;"/>
            </g>
            <g transform="matrix(28.7302,-53.1467,53.0136,28.8024,656.492,751.396)">
                <path d="M0.313,-0L0.039,-0L0.039,-0.114L0.109,-0.114L0.109,-0.536L0.039,-0.536L0.039,-0.65L0.313,-0.65L0.313,-0.536L0.243,-0.536L0.243,-0.114L0.313,-0.114L0.313,-0Z" style="fill:rgb(124,125,125);fill-rule:nonzero;"/>
            </g>
            <g transform="matrix(35.2308,-49.0582,48.9352,35.3193,666.207,732.481)">
                <path d="M0.527,-0L0.039,-0L0.039,-0.114L0.109,-0.114L0.109,-0.536L0.039,-0.536L0.039,-0.65L0.334,-0.65L0.334,-0.536L0.243,-0.536L0.243,-0.114L0.413,-0.114L0.433,-0.24L0.547,-0.23L0.527,-0Z" style="fill:rgb(124,125,125);fill-rule:nonzero;"/>
            </g>
            <g transform="matrix(43.9856,-41.3484,41.2448,44.0961,685.166,704.273)">
                <path d="M0.869,-0.536L0.789,-0.536L0.789,-0.114L0.859,-0.114L0.859,-0L0.598,-0L0.598,-0.114L0.655,-0.114L0.655,-0.362L0.651,-0.362L0.48,-0.053L0.424,-0.053L0.24,-0.374L0.236,-0.374L0.236,-0.114L0.298,-0.114L0.298,-0L0.041,-0L0.041,-0.114L0.111,-0.114L0.111,-0.536L0.031,-0.536L0.031,-0.65L0.223,-0.65L0.454,-0.247L0.458,-0.247L0.675,-0.65L0.869,-0.65L0.869,-0.536Z" style="fill:rgb(124,125,125);fill-rule:nonzero;"/>
            </g>
            <g transform="matrix(51.7822,-30.972,30.8944,51.9123,724.767,667.807)">
                <path d="M0.688,-0.326C0.688,-0.234 0.659,-0.155 0.6,-0.089C0.541,-0.023 0.458,0.01 0.353,0.01C0.247,0.01 0.166,-0.023 0.109,-0.089C0.052,-0.155 0.024,-0.233 0.024,-0.324C0.024,-0.419 0.054,-0.498 0.114,-0.563C0.174,-0.628 0.255,-0.66 0.357,-0.66C0.461,-0.66 0.542,-0.627 0.601,-0.562C0.659,-0.496 0.688,-0.417 0.688,-0.326ZM0.543,-0.322C0.543,-0.391 0.527,-0.445 0.495,-0.484C0.463,-0.523 0.417,-0.542 0.356,-0.542C0.291,-0.542 0.244,-0.522 0.214,-0.481C0.184,-0.44 0.169,-0.388 0.169,-0.327C0.169,-0.268 0.184,-0.216 0.213,-0.173C0.242,-0.13 0.291,-0.108 0.36,-0.108C0.423,-0.108 0.47,-0.128 0.499,-0.168C0.528,-0.207 0.543,-0.259 0.543,-0.322Z" style="fill:rgb(124,125,125);fill-rule:nonzero;"/>
            </g>
            <g transform="matrix(56.5211,-21.0582,21.0054,56.6631,760.149,646.55)">
                <path d="M0.679,-0.536L0.62,-0.536L0.389,-0L0.296,-0L0.066,-0.536L0.005,-0.536L0.005,-0.65L0.274,-0.65L0.274,-0.536L0.215,-0.536L0.348,-0.207L0.354,-0.207L0.484,-0.536L0.423,-0.536L0.423,-0.65L0.679,-0.65L0.679,-0.536Z" style="fill:rgb(124,125,125);fill-rule:nonzero;"/>
            </g>
            <g transform="matrix(59.3858,-10.4756,10.4493,59.535,799.097,632.195)">
                <path d="M0.479,-0.716L0.264,-0.688L0.248,-0.745L0.45,-0.833L0.479,-0.716ZM0.636,-0.536L0.58,-0.536L0.391,-0.254L0.391,-0.114L0.497,-0.114L0.497,-0L0.157,-0L0.157,-0.114L0.257,-0.114L0.257,-0.255L0.062,-0.536L0.004,-0.536L0.004,-0.65L0.273,-0.65L0.273,-0.536L0.219,-0.536L0.328,-0.372L0.334,-0.372L0.442,-0.536L0.38,-0.536L0.38,-0.65L0.636,-0.65L0.636,-0.536Z" style="fill:rgb(124,125,125);fill-rule:nonzero;"/>
            </g>
            <g transform="matrix(60.2633,2.05474,-2.04959,60.4147,846.86,624.995)">
                <path d="M0.547,-0.45L0.433,-0.44L0.413,-0.536L0.243,-0.536L0.243,-0.354L0.516,-0.354L0.516,-0.241L0.243,-0.241L0.243,-0.114L0.349,-0.114L0.349,-0L0.039,-0L0.039,-0.114L0.109,-0.114L0.109,-0.536L0.039,-0.536L0.039,-0.65L0.527,-0.65L0.547,-0.45Z" style="fill:rgb(124,125,125);fill-rule:nonzero;"/>
            </g>
            <g transform="matrix(59.2149,11.4066,-11.378,59.3636,881.213,626.049)">
                <path d="M0.541,-0L0.039,-0L0.039,-0.114L0.109,-0.114L0.109,-0.536L0.039,-0.536L0.039,-0.65L0.535,-0.65L0.555,-0.46L0.441,-0.45L0.421,-0.536L0.243,-0.536L0.243,-0.383L0.517,-0.383L0.517,-0.27L0.243,-0.27L0.243,-0.114L0.427,-0.114L0.447,-0.2L0.561,-0.19L0.541,-0Z" style="fill:rgb(124,125,125);fill-rule:nonzero;"/>
            </g>
            <g transform="matrix(56.7125,20.5345,-20.4831,56.855,916.346,632.876)">
                <path d="M0.526,-0.197C0.526,-0.13 0.503,-0.078 0.458,-0.043C0.413,-0.008 0.35,0.01 0.271,0.01C0.227,0.01 0.183,0.004 0.14,-0.007C0.096,-0.018 0.061,-0.035 0.036,-0.058L0.056,-0.219L0.163,-0.209L0.162,-0.13C0.185,-0.118 0.204,-0.111 0.22,-0.109C0.236,-0.106 0.25,-0.105 0.261,-0.105C0.296,-0.105 0.325,-0.11 0.348,-0.119C0.371,-0.128 0.382,-0.148 0.382,-0.181C0.382,-0.217 0.369,-0.241 0.342,-0.254C0.315,-0.266 0.284,-0.275 0.248,-0.282C0.217,-0.287 0.185,-0.295 0.154,-0.306C0.122,-0.316 0.095,-0.333 0.074,-0.357C0.053,-0.38 0.042,-0.415 0.042,-0.462C0.042,-0.535 0.067,-0.586 0.116,-0.616C0.165,-0.645 0.219,-0.66 0.278,-0.66C0.321,-0.66 0.361,-0.654 0.4,-0.641C0.439,-0.627 0.468,-0.61 0.489,-0.588L0.495,-0.447L0.388,-0.437L0.379,-0.513C0.362,-0.524 0.345,-0.532 0.329,-0.536C0.312,-0.54 0.295,-0.542 0.279,-0.542C0.252,-0.542 0.23,-0.537 0.213,-0.528C0.195,-0.519 0.186,-0.502 0.186,-0.479C0.186,-0.452 0.197,-0.433 0.22,-0.422C0.243,-0.411 0.269,-0.403 0.298,-0.396C0.325,-0.391 0.356,-0.383 0.392,-0.374C0.427,-0.364 0.458,-0.346 0.486,-0.32C0.513,-0.293 0.526,-0.252 0.526,-0.197Z" style="fill:rgb(124,125,125);fill-rule:nonzero;"/>
            </g>
            <g transform="matrix(52.6129,29.5315,-29.4575,52.7451,948.083,644.119)">
                <path d="M0.629,-0.43L0.515,-0.42L0.495,-0.536L0.392,-0.536L0.392,-0.114L0.498,-0.114L0.498,-0L0.158,-0L0.158,-0.114L0.258,-0.114L0.258,-0.536L0.155,-0.536L0.135,-0.42L0.021,-0.43L0.041,-0.65L0.609,-0.65L0.629,-0.43Z" style="fill:rgb(124,125,125);fill-rule:nonzero;"/>
            </g>
            <g transform="matrix(48.1242,36.4221,-36.3308,48.2451,982.059,663.903)">
                <path d="M0.313,-0L0.039,-0L0.039,-0.114L0.109,-0.114L0.109,-0.536L0.039,-0.536L0.039,-0.65L0.313,-0.65L0.313,-0.536L0.243,-0.536L0.243,-0.114L0.313,-0.114L0.313,-0Z" style="fill:rgb(124,125,125);fill-rule:nonzero;"/>
            </g>
            <g transform="matrix(42.5955,42.7861,-42.6789,42.7025,999.454,676.193)">
                <path d="M0.679,-0.536L0.62,-0.536L0.389,-0L0.296,-0L0.066,-0.536L0.005,-0.536L0.005,-0.65L0.274,-0.65L0.274,-0.536L0.215,-0.536L0.348,-0.207L0.354,-0.207L0.484,-0.536L0.423,-0.536L0.423,-0.65L0.679,-0.65L0.679,-0.536Z" style="fill:rgb(124,125,125);fill-rule:nonzero;"/>
            </g>
            <g transform="matrix(35.0472,49.1902,-49.0669,35.1352,1025.36,701.569)">
                <path d="M0.687,-0L0.428,-0L0.428,-0.114L0.48,-0.114L0.456,-0.18L0.235,-0.18L0.208,-0.114L0.269,-0.114L0.269,-0L0.013,-0L0.013,-0.114L0.072,-0.114L0.258,-0.536L0.168,-0.536L0.168,-0.65L0.391,-0.65L0.625,-0.114L0.687,-0.114L0.687,-0ZM0.42,-0.276L0.352,-0.459L0.346,-0.459L0.273,-0.276L0.42,-0.276Z" style="fill:rgb(124,125,125);fill-rule:nonzero;"/>
            </g>
            <g transform="matrix(26.1375,54.4752,-54.3387,26.2032,1049.31,735.583)">
                <path d="M0.527,-0L0.039,-0L0.039,-0.114L0.109,-0.114L0.109,-0.536L0.039,-0.536L0.039,-0.65L0.334,-0.65L0.334,-0.536L0.243,-0.536L0.243,-0.114L0.413,-0.114L0.433,-0.24L0.547,-0.23L0.527,-0Z" style="fill:rgb(124,125,125);fill-rule:nonzero;"/>
            </g>
        </g>
        <g transform="matrix(1.57734,0,0,1.57734,409.913,2820.63)">
            <path d="M141.462,182.777C140.146,187.147 139.366,191.75 139.227,196.515L140.801,196.515C140.939,191.891 141.7,187.426 142.98,183.186L141.462,182.777Z" style="fill:rgb(124,125,125);fill-rule:nonzero;"/>
        </g>
        <g transform="matrix(1.57734,0,0,1.57734,409.913,2820.63)">
            <path d="M238.933,180.91C240.667,185.814 241.692,191.055 241.857,196.515L243.43,196.515C243.265,190.867 242.206,185.445 240.41,180.373L238.933,180.91Z" style="fill:rgb(124,125,125);fill-rule:nonzero;"/>
        </g>
    </g>
</svg>
