<?xml version="1.0" encoding="UTF-8" standalone="no"?>
<!DOCTYPE svg PUBLIC "-//W3C//DTD SVG 1.1//EN" "http://www.w3.org/Graphics/SVG/1.1/DTD/svg11.dtd">
<svg width="100%" height="100%" viewBox="0 0 200 200" version="1.1" xmlns="http://www.w3.org/2000/svg" xmlns:xlink="http://www.w3.org/1999/xlink" xml:space="preserve" xmlns:serif="http://www.serif.com/" style="fill-rule:evenodd;clip-rule:evenodd;stroke-linejoin:round;stroke-miterlimit:2;">
    <g transform="matrix(0.409257,0,0,0.409257,-469.29,-1206.01)">
        <g transform="matrix(4.16667,0,0,4.16667,-25,1829.98)">
            <path d="M357.948,306.5L354.085,310.36L351.392,307.665L355.254,303.803L357.948,306.5ZM363.105,311.657L359.244,315.517L356.551,312.827L360.413,308.963L363.105,311.657ZM368.266,316.814L364.402,320.678L361.708,317.983L365.571,314.121L368.266,316.814ZM373.42,321.971L369.559,325.835L366.866,323.142L370.729,319.278L373.42,321.971ZM378.58,327.129L374.717,330.992L372.024,328.3L375.886,324.435L378.58,327.129ZM370.502,331.451C372.11,333.056 372.17,335.627 370.636,337.161L342.472,365.327C340.937,366.861 338.365,366.801 336.759,365.194L316.405,344.84C314.799,343.233 314.738,340.662 316.271,339.128L344.439,310.964C345.971,309.429 348.541,309.49 350.147,311.097L370.502,331.451ZM315.58,348.871L311.717,352.73L309.021,350.035L312.882,346.174L315.58,348.871ZM320.737,354.026L316.875,357.887L314.181,355.194L318.041,351.332L320.737,354.026ZM325.896,359.185L322.034,363.046L319.339,360.352L323.2,356.491L325.896,359.185ZM331.051,364.343L327.189,368.203L324.498,365.511L328.358,361.649L331.051,364.343ZM336.209,369.501L332.348,373.361L329.655,370.667L333.515,366.805L336.209,369.501ZM350.443,298.995L352.788,301.34L348.924,305.201L346.582,302.857L308.073,341.364L310.42,343.71L306.556,347.571L304.211,345.227L302.598,346.841L334.758,379L336.371,377.387L334.813,375.825L338.674,371.964L340.233,373.525L378.74,335.016L377.18,333.456L381.043,329.594L382.604,331.154L384.309,329.448L352.15,297.288L350.443,298.995Z" style="fill:rgb(124,125,125);fill-rule:nonzero;"/>
        </g>
        <g transform="matrix(4.16667,0,0,4.16667,-25,1829.98)">
            <path d="M295.296,350.554L303.007,350.554C303.007,354.376 301.17,362.084 301.17,362.084C300.008,362.505 297.693,362.21 297.693,362.21C296.735,359.613 295.296,350.554 295.296,350.554Z" style="fill:rgb(250,162,26);fill-rule:nonzero;"/>
        </g>
        <g transform="matrix(4.16667,0,0,4.16667,-25,1829.98)">
            <path d="M297.358,361.124C297.474,361.55 297.586,361.921 297.693,362.21C297.693,362.21 300.008,362.505 301.17,362.084C301.17,362.084 301.268,361.677 301.415,361.009C300.079,361.549 298.59,361.405 297.358,361.124Z" style="fill:rgb(124,125,125);fill-rule:nonzero;"/>
        </g>
        <g transform="matrix(4.16667,0,0,4.16667,-25,1829.98)">
            <path d="M343.476,350.554L335.764,350.554C335.764,354.376 337.601,362.084 337.601,362.084C338.764,362.505 341.078,362.21 341.078,362.21C342.036,359.613 343.476,350.554 343.476,350.554Z" style="fill:rgb(250,162,26);fill-rule:nonzero;"/>
        </g>
        <g transform="matrix(4.16667,0,0,4.16667,-25,1829.98)">
            <path d="M341.413,361.124C341.297,361.55 341.185,361.921 341.078,362.21C341.078,362.21 338.764,362.505 337.601,362.084C337.601,362.084 337.505,361.677 337.356,361.009C338.691,361.549 340.181,361.405 341.413,361.124Z" style="fill:rgb(124,125,125);fill-rule:nonzero;"/>
        </g>
        <g transform="matrix(4.16667,0,0,4.16667,-25,1829.98)">
            <path d="M346.88,303.759C344.651,287.016 331.438,282.949 323.316,281.898C322.105,281.743 316.676,281.743 315.473,281.897C307.353,282.943 294.12,287.006 291.892,303.759C291.327,307.984 290.641,325.719 291.892,336.616L346.88,336.616C348.132,325.719 347.442,307.984 346.88,303.759Z" style="fill:rgb(3,4,4);fill-rule:nonzero;"/>
        </g>
        <g transform="matrix(4.16667,0,0,4.16667,-25,1829.98)">
            <path d="M315.473,281.897C307.353,282.943 294.12,287.006 291.892,303.759C291.851,304.055 291.81,304.424 291.77,304.847C294.562,294.979 305.865,287.596 319.387,287.596C332.907,287.596 344.212,294.979 347.002,304.847C346.963,304.424 346.921,304.055 346.88,303.759C344.651,287.016 331.438,282.949 323.316,281.898C322.105,281.743 316.676,281.743 315.473,281.897Z" style="fill:rgb(124,125,125);fill-rule:nonzero;"/>
        </g>
        <g transform="matrix(4.16667,0,0,4.16667,-25,1829.98)">
            <path d="M347.356,335.39C345.228,335.429 293.543,335.429 291.416,335.39C289.222,335.348 289.413,337.545 289.509,338.868C289.604,340.192 291.235,350.372 291.511,351.116C292.035,352.525 293.418,352.641 295.992,352.612C298.31,352.583 340.461,352.583 342.778,352.612C345.354,352.641 346.734,352.525 347.26,351.116C347.538,350.372 349.167,340.192 349.263,338.868C349.357,337.545 349.548,335.348 347.356,335.39Z" style="fill:rgb(3,4,4);fill-rule:nonzero;"/>
        </g>
        <g transform="matrix(4.16667,0,0,4.16667,-25,1829.98)">
            <path d="M295.429,335.405C301.286,338.799 309.848,340.938 319.387,340.938C328.923,340.938 337.486,338.799 343.344,335.405C332.991,335.426 305.781,335.426 295.429,335.405Z" style="fill:rgb(124,125,125);fill-rule:nonzero;"/>
        </g>
        <g transform="matrix(4.16667,0,0,4.16667,-25,1829.98)">
            <path d="M304.019,329.283C304.019,334.142 299.994,338.082 295.026,338.082C290.06,338.082 286.031,334.142 286.031,329.283C286.031,324.423 290.06,320.482 295.026,320.482C299.994,320.482 304.019,324.423 304.019,329.283Z" style="fill:rgb(124,125,125);fill-rule:nonzero;"/>
        </g>
        <g transform="matrix(4.16667,0,0,4.16667,-25,1829.98)">
            <path d="M299.478,328.359C298.98,327.898 297.938,328.008 297.201,328.164C296.822,327.465 296.129,326.989 295.246,326.886C294.99,326.297 294.588,325.144 294.779,324.073C293.933,324.548 293.762,326.272 293.727,327.056C292.734,327.416 292.039,328.243 292.039,329.35C292.039,329.733 292.121,330.096 292.269,330.425C292.137,330.911 291.764,332.04 290.967,332.705C291.698,332.843 292.62,332.046 293.146,331.507C293.626,331.863 294.225,332.075 294.879,332.075C296.44,332.075 297.521,330.97 297.521,329.469C297.521,329.408 297.517,329.348 297.512,329.292C297.976,328.926 298.694,328.464 299.478,328.359Z" style="fill:rgb(3,4,4);fill-rule:nonzero;"/>
        </g>
        <g transform="matrix(4.16667,0,0,4.16667,-25,1829.98)">
            <path d="M296.7,329.35C296.7,330.295 295.884,331.062 294.879,331.062C293.87,331.062 293.054,330.295 293.054,329.35C293.054,328.406 293.87,327.64 294.879,327.64C295.884,327.64 296.7,328.406 296.7,329.35Z" style="fill:rgb(250,162,26);fill-rule:nonzero;"/>
        </g>
        <g transform="matrix(4.16667,0,0,4.16667,-25,1829.98)">
            <path d="M334.751,329.283C334.751,334.142 338.777,338.082 343.745,338.082C348.711,338.082 352.739,334.142 352.739,329.283C352.739,324.423 348.711,320.482 343.745,320.482C338.777,320.482 334.751,324.423 334.751,329.283Z" style="fill:rgb(124,125,125);fill-rule:nonzero;"/>
        </g>
        <g transform="matrix(4.16667,0,0,4.16667,-25,1829.98)">
            <path d="M339.294,328.359C339.79,327.898 340.83,328.008 341.568,328.164C341.948,327.465 342.641,326.989 343.524,326.886C343.78,326.297 344.183,325.144 343.991,324.073C344.84,324.548 345.01,326.272 345.043,327.056C346.036,327.416 346.731,328.243 346.731,329.35C346.731,329.733 346.65,330.096 346.502,330.425C346.633,330.911 347.009,332.04 347.805,332.705C347.074,332.843 346.152,332.046 345.625,331.507C345.146,331.863 344.547,332.075 343.896,332.075C342.331,332.075 341.251,330.97 341.251,329.469C341.251,329.408 341.255,329.348 341.258,329.292C340.796,328.926 340.076,328.464 339.294,328.359Z" style="fill:rgb(3,4,4);fill-rule:nonzero;"/>
        </g>
        <g transform="matrix(4.16667,0,0,4.16667,-25,1829.98)">
            <path d="M342.072,329.35C342.072,330.295 342.889,331.062 343.896,331.062C344.9,331.062 345.719,330.295 345.719,329.35C345.719,328.406 344.9,327.64 343.896,327.64C342.889,327.64 342.072,328.406 342.072,329.35Z" style="fill:rgb(250,162,26);fill-rule:nonzero;"/>
        </g>
        <g transform="matrix(4.16667,0,0,4.16667,-25,1829.98)">
            <path d="M393.665,295.338C393.665,306.917 381.174,316.305 365.766,316.305C350.355,316.305 337.864,306.917 337.864,295.338C337.864,283.757 350.355,274.368 365.766,274.368C381.174,274.368 393.665,283.757 393.665,295.338Z" style="fill:rgb(250,162,26);fill-rule:nonzero;"/>
        </g>
        <g transform="matrix(0.470895,0,0,0.519816,885.64,2831.6)">
            <text x="1139.49px" y="439.514px" style="font-family:'ZillaSlab-Bold', 'Zilla Slab';font-weight:700;font-size:92.34px;">ČAS</text>
        </g>
        <g transform="matrix(0.551744,0,0,0.609065,832.425,2833.58)">
            <text x="1104.86px" y="439.514px" style="font-family:'ZillaSlab-Bold', 'Zilla Slab';font-weight:700;font-size:92.34px;">FILM!</text>
        </g>
        <g transform="matrix(0.286998,0,0,0.316814,1073.85,2938.93)">
            <text x="1175.92px" y="439.514px" style="font-family:'ZillaSlab-Bold', 'Zilla Slab';font-weight:700;font-size:92.34px;">na</text>
        </g>
        <g transform="matrix(4.16667,0,0,4.16667,-25,1829.98)">
            <path d="M340.688,298.941L329.942,311.072L343.459,305.873L340.688,298.941Z" style="fill:rgb(250,162,26);fill-rule:nonzero;"/>
        </g>
    </g>
</svg>
