<?xml version="1.0" encoding="UTF-8" standalone="no"?>
<!DOCTYPE svg PUBLIC "-//W3C//DTD SVG 1.1//EN" "http://www.w3.org/Graphics/SVG/1.1/DTD/svg11.dtd">
<svg width="100%" height="100%" viewBox="0 0 200 200" version="1.1" xmlns="http://www.w3.org/2000/svg" xmlns:xlink="http://www.w3.org/1999/xlink" xml:space="preserve" xmlns:serif="http://www.serif.com/" style="fill-rule:evenodd;clip-rule:evenodd;stroke-linejoin:round;stroke-miterlimit:2;">
    <g transform="matrix(1,0,0,1,-877.727,-2929.12)">
        <g transform="matrix(1.80514,0,0,1.80514,629.376,2430.17)">
            <path d="M212.832,290.533C212.878,290.487 212.925,290.45 212.973,290.416L212.28,289.721L212.279,289.724C207.573,294.43 199.941,294.431 195.235,289.725C195.235,289.725 195.232,289.721 195.229,289.719L147.96,336.988C152.626,341.699 152.616,349.301 147.922,353.994C147.92,353.997 147.917,353.998 147.914,354.003L148.654,354.743C148.703,354.673 148.757,354.606 148.82,354.545C149.326,354.038 150.148,354.036 150.655,354.543C151.162,355.048 151.162,355.873 150.655,356.38C150.593,356.441 150.525,356.496 150.455,356.543L151.231,357.32C151.275,357.246 151.332,357.182 151.396,357.119C151.901,356.612 152.722,356.61 153.231,357.118C153.738,357.625 153.736,358.447 153.23,358.954C153.168,359.017 153.101,359.069 153.03,359.119L153.807,359.894C153.854,359.823 153.907,359.757 153.971,359.695C154.477,359.188 155.3,359.184 155.805,359.694C156.313,360.202 156.313,361.024 155.808,361.531C155.744,361.593 155.678,361.647 155.605,361.693L156.381,362.468C156.429,362.397 156.483,362.334 156.546,362.27C157.053,361.763 157.875,361.762 158.38,362.268C158.891,362.776 158.889,363.6 158.383,364.107C158.319,364.169 158.253,364.223 158.181,364.269L158.956,365.045C159.006,364.975 159.059,364.908 159.121,364.846C159.628,364.34 160.45,364.338 160.957,364.843C161.465,365.352 161.463,366.174 160.955,366.68C160.895,366.742 160.826,366.797 160.756,366.844L161.533,367.622C161.58,367.55 161.634,367.484 161.696,367.421C162.203,366.914 163.025,366.913 163.533,367.42C164.04,367.927 164.04,368.752 163.533,369.259C163.471,369.32 163.403,369.374 163.332,369.421L164.021,370.108C164.024,370.106 164.024,370.102 164.026,370.1C168.735,365.392 176.366,365.391 181.074,370.1C181.078,370.103 181.084,370.111 181.089,370.115L228.357,322.846C223.684,318.135 223.689,310.527 228.387,305.83L228.388,305.829L227.662,305.102C227.626,305.149 227.591,305.2 227.545,305.246C227.038,305.754 226.215,305.751 225.707,305.246C225.2,304.736 225.2,303.916 225.707,303.408C225.753,303.362 225.804,303.327 225.852,303.292L225.085,302.527C225.049,302.574 225.014,302.623 224.968,302.669C224.461,303.176 223.641,303.177 223.133,302.669C222.625,302.162 222.626,301.342 223.133,300.834C223.179,300.788 223.228,300.753 223.273,300.715L222.511,299.951C222.475,299.998 222.44,300.05 222.395,300.096C221.887,300.602 221.066,300.602 220.556,300.092C220.049,299.586 220.05,298.765 220.557,298.258C220.603,298.213 220.652,298.176 220.7,298.141L219.934,297.376C219.898,297.424 219.864,297.473 219.818,297.519C219.311,298.026 218.489,298.025 217.981,297.517C217.475,297.011 217.475,296.19 217.982,295.683C218.028,295.637 218.076,295.601 218.124,295.566L217.358,294.8C217.324,294.847 217.288,294.898 217.242,294.941C216.735,295.451 215.912,295.451 215.405,294.941C214.897,294.433 214.901,293.614 215.408,293.107C215.452,293.061 215.502,293.025 215.549,292.989L214.783,292.226C214.747,292.272 214.712,292.322 214.667,292.368C214.159,292.875 213.337,292.873 212.831,292.367C212.323,291.859 212.325,291.04 212.832,290.533Z" style="fill:rgb(251,169,36);fill-rule:nonzero;"/>
        </g>
        <g transform="matrix(1.80514,0,0,1.80514,629.376,2430.17)">
            <path d="M180.605,363.846C175.605,361.125 169.506,361.119 164.507,363.84L154.18,353.513C156.878,348.542 156.89,342.473 154.212,337.49L195.716,295.986C200.711,298.702 206.798,298.702 211.795,295.989L222.124,306.319C219.427,311.297 219.419,317.363 222.104,322.347L180.605,363.846Z" style="fill:rgb(3,4,4);fill-rule:nonzero;"/>
        </g>
        <g transform="matrix(1.80514,0,0,1.80514,629.376,2430.17)">
            <path d="M180.338,362.179C175.454,359.88 169.659,359.879 164.772,362.177L155.844,353.248C158.166,348.337 158.176,342.679 155.873,337.759L195.981,297.652C200.86,299.942 206.647,299.946 211.528,297.654L220.46,306.585C218.141,311.501 218.133,317.157 220.44,322.078L180.338,362.179Z" style="fill:white;fill-rule:nonzero;"/>
        </g>
        <g transform="matrix(1.80514,0,0,1.80514,629.376,2430.17)">
            <path d="M167.528,354.639L166.57,357.721L164.708,355.087L161.479,355.127L163.409,352.542L162.375,349.486L165.429,350.523L168.016,348.593L167.974,351.819L170.609,353.682L167.528,354.639Z" style="fill:rgb(250,162,26);fill-rule:nonzero;"/>
        </g>
        <g transform="matrix(1.80514,0,0,1.80514,629.376,2430.17)">
            <path d="M212.876,309.292L211.918,312.373L210.055,309.74L206.829,309.779L208.76,307.191L207.724,304.137L210.778,305.173L213.363,303.244L213.323,306.471L215.956,308.335L212.876,309.292Z" style="fill:rgb(250,162,26);fill-rule:nonzero;"/>
        </g>
        <g transform="matrix(1.80514,0,0,1.80514,629.376,2430.17)">
            <path d="M195.332,306.221L164.457,337.097L163.613,336.252L194.488,305.377L195.332,306.221Z" style="fill:rgb(124,125,125);fill-rule:nonzero;"/>
        </g>
        <g transform="matrix(1.80514,0,0,1.80514,629.376,2430.17)">
            <path d="M212.701,323.588L181.824,354.465L180.98,353.618L211.855,322.743L212.701,323.588Z" style="fill:rgb(124,125,125);fill-rule:nonzero;"/>
        </g>
        <g transform="matrix(0.612675,-0.612675,0.676326,0.676326,-86.5759,3509.94)">
            <text x="1223.19px" y="439.514px" style="font-family:'ZillaSlab-Bold', 'Zilla Slab';font-weight:700;font-size:48.496px;fill:rgb(124,125,125);">VIP</text>
        </g>
        <g transform="matrix(1.80514,0,0,1.80514,629.376,2430.17)">
            <path d="M238.277,340.055C238.343,340.055 238.402,340.063 238.461,340.073L238.461,339.094L238.459,339.094C231.802,339.094 226.406,333.7 226.406,327.042L226.406,327.033L159.556,327.033C159.525,333.665 154.144,339.033 147.505,339.033L147.494,339.033L147.494,340.081C147.577,340.063 147.662,340.055 147.752,340.055C148.468,340.055 149.05,340.636 149.05,341.352C149.05,342.068 148.468,342.652 147.752,342.652C147.662,342.652 147.577,342.642 147.494,342.625L147.494,343.723C147.577,343.704 147.662,343.697 147.752,343.697C148.468,343.697 149.05,344.277 149.05,344.995C149.05,345.712 148.468,346.294 147.752,346.294C147.662,346.294 147.577,346.284 147.494,346.266L147.494,347.365C147.577,347.347 147.662,347.341 147.752,347.341C148.468,347.341 149.05,347.92 149.05,348.637C149.05,349.354 148.468,349.937 147.752,349.937C147.662,349.937 147.577,349.928 147.494,349.911L147.494,351.007C147.577,350.989 147.662,350.983 147.752,350.983C148.468,350.983 149.05,351.562 149.05,352.278C149.05,352.999 148.468,353.579 147.752,353.579C147.662,353.579 147.577,353.569 147.494,353.553L147.494,354.649C147.577,354.633 147.662,354.625 147.752,354.625C148.468,354.625 149.05,355.204 149.05,355.921C149.05,356.64 148.468,357.22 147.752,357.22C147.662,357.22 147.577,357.21 147.494,357.194L147.494,358.292C147.577,358.274 147.662,358.266 147.752,358.266C148.468,358.266 149.05,358.846 149.05,359.563C149.05,360.282 148.468,360.863 147.752,360.863C147.662,360.863 147.577,360.853 147.494,360.837L147.494,361.81C147.498,361.81 147.501,361.808 147.505,361.808C154.162,361.808 159.56,367.204 159.56,373.862C159.56,373.869 159.559,373.876 159.559,373.884L226.408,373.884C226.432,367.247 231.818,361.873 238.459,361.873L238.461,361.873L238.461,360.846C238.402,360.852 238.343,360.863 238.277,360.863C237.561,360.863 236.98,360.282 236.98,359.563C236.98,358.846 237.561,358.266 238.277,358.266C238.343,358.266 238.402,358.274 238.461,358.284L238.461,357.201C238.402,357.21 238.343,357.22 238.277,357.22C237.561,357.22 236.98,356.64 236.98,355.921C236.98,355.204 237.561,354.625 238.277,354.625C238.343,354.625 238.402,354.633 238.461,354.64L238.461,353.559C238.402,353.568 238.343,353.579 238.277,353.579C237.561,353.579 236.98,352.999 236.98,352.278C236.98,351.562 237.561,350.983 238.277,350.983C238.343,350.983 238.402,350.989 238.461,351L238.461,349.917C238.402,349.927 238.343,349.937 238.277,349.937C237.561,349.937 236.98,349.354 236.98,348.637C236.98,347.92 237.561,347.341 238.277,347.341C238.343,347.341 238.402,347.347 238.461,347.357L238.461,346.274C238.402,346.284 238.343,346.294 238.277,346.294C237.561,346.294 236.98,345.712 236.98,344.995C236.98,344.277 237.561,343.697 238.277,343.697C238.343,343.697 238.402,343.706 238.461,343.715L238.461,342.634C238.402,342.641 238.343,342.652 238.277,342.652C237.561,342.652 236.98,342.068 236.98,341.352C236.98,340.636 237.561,340.055 238.277,340.055Z" style="fill:rgb(251,169,36);fill-rule:nonzero;"/>
        </g>
        <g transform="matrix(1.80514,0,0,1.80514,629.376,2430.17)">
            <path d="M163.65,369.109C162.038,363.649 157.729,359.333 152.27,357.721L152.27,343.118C157.693,341.508 161.991,337.227 163.623,331.809L222.317,331.809C223.931,337.262 228.236,341.565 233.687,343.182L233.687,357.789C228.26,359.401 223.963,363.685 222.338,369.109L163.65,369.109Z" style="fill:rgb(3,4,4);fill-rule:nonzero;"/>
        </g>
        <g transform="matrix(1.80514,0,0,1.80514,629.376,2430.17)">
            <path d="M164.64,367.743C162.813,362.661 158.716,358.562 153.635,356.733L153.635,344.106C158.748,342.275 162.756,338.281 164.608,333.174L221.328,333.174C223.158,338.245 227.249,342.341 232.32,344.169L232.32,356.802C227.203,358.637 223.2,362.633 221.351,367.743L164.64,367.743Z" style="fill:white;fill-rule:nonzero;"/>
        </g>
        <g transform="matrix(1.80514,0,0,1.80514,629.376,2430.17)">
            <path d="M160.913,353.351L158.057,354.854L158.603,351.675L156.291,349.421L159.483,348.957L160.913,346.064L162.34,348.957L165.533,349.421L163.222,351.675L163.768,354.854L160.913,353.351Z" style="fill:rgb(250,162,26);fill-rule:nonzero;"/>
        </g>
        <g transform="matrix(1.80514,0,0,1.80514,629.376,2430.17)">
            <path d="M225.045,353.351L222.188,354.854L222.732,351.675L220.424,349.421L223.617,348.957L225.045,346.064L226.473,348.957L229.666,349.421L227.354,351.675L227.9,354.854L225.045,353.351Z" style="fill:rgb(250,162,26);fill-rule:nonzero;"/>
        </g>
        <g transform="matrix(1.80514,0,0,1.80514,629.376,2430.17)">
            <rect x="166.466" y="340.408" width="52.378" height="1.203" style="fill:rgb(3,4,4);fill-rule:nonzero;"/>
        </g>
        <g transform="matrix(1.80514,0,0,1.80514,629.376,2430.17)">
            <rect x="166.466" y="358.469" width="52.378" height="1.205" style="fill:rgb(3,4,4);fill-rule:nonzero;"/>
        </g>
        <g transform="matrix(0.470895,0,0,0.519816,400.407,2843.49)">
            <text x="1129.4px" y="439.514px" style="font-family:'ZillaSlab-Bold', 'Zilla Slab';font-weight:700;font-size:48.496px;">VÍTEJTE</text>
        </g>
    </g>
</svg>
